<svg width="25" height="25" fill="none" xmlns="http://www.w3.org/2000/svg"><path d="M12.497 6.086A6.405 6.405 0 006.083 12.5a6.405 6.405 0 006.414 6.414A6.405 6.405 0 0018.91 12.5a6.405 6.405 0 00-6.413-6.414zm0 10.582A4.177 4.177 0 018.328 12.5a4.177 4.177 0 014.169-4.168 4.177 4.177 0 014.168 4.168 4.177 4.177 0 01-4.168 4.168zm6.676-12.34c-.829 0-1.498.67-1.498 1.499 0 .828.67 1.498 1.498 1.498a1.494 1.494 0 001.384-2.072 1.495 1.495 0 00-1.384-.924zm5.826 8.172c0-1.726.015-3.437-.082-5.16-.097-2.001-.553-3.777-2.017-5.24C21.434.632 19.66.18 17.66.081c-1.728-.096-3.438-.08-5.16-.08-1.726 0-3.437-.016-5.16.081C5.34.18 3.563.636 2.1 2.1.632 3.566.18 5.34.081 7.34c-.096 1.726-.08 3.437-.08 5.16 0 1.723-.016 3.437.081 5.16.098 2 .554 3.777 2.018 5.24 1.467 1.467 3.24 1.92 5.241 2.018 1.726.097 3.437.081 5.16.081 1.726 0 3.436.016 5.16-.081 2-.097 3.777-.554 5.24-2.017 1.467-1.467 1.92-3.24 2.017-5.241.1-1.723.082-3.434.082-5.16zm-2.752 7.374a3.986 3.986 0 01-.945 1.432 4 4 0 01-1.432.944c-1.645.654-5.55.507-7.373.507-1.823 0-5.732.147-7.377-.504a3.974 3.974 0 01-1.432-.944 4 4 0 01-.945-1.432c-.65-1.648-.503-5.554-.503-7.377 0-1.823-.147-5.732.503-7.377.229-.569.504-.994.945-1.432.44-.438.863-.716 1.432-.944 1.645-.65 5.554-.504 7.377-.504 1.823 0 5.732-.147 7.376.504.57.228.995.503 1.433.944a4 4 0 01.944 1.432c.65 1.645.503 5.554.503 7.377 0 1.823.147 5.729-.506 7.374z" fill="#CBF9E3"/></svg>