<svg width="32" height="19" fill="none" xmlns="http://www.w3.org/2000/svg"><path d="M31.27 1.288C31.49.546 31.27 0 30.214 0h-3.499c-.89 0-1.3.47-1.52.992 0 0-1.783 4.34-4.301 7.154-.814.814-1.188 1.075-1.634 1.075-.22 0-.558-.261-.558-1.004V1.288C18.7.398 18.45 0 17.715 0h-5.501c-.559 0-.891.416-.891.802 0 .843 1.259 1.039 1.39 3.414v5.153c0 1.129-.202 1.336-.648 1.336-1.188 0-4.075-4.358-5.786-9.345C5.935.392 5.596 0 4.7 0H1.2C.202 0 0 .47 0 .992c0 .926 1.188 5.527 5.53 11.607C8.425 16.75 12.5 19 16.207 19c2.227 0 2.5-.499 2.5-1.36 0-3.966-.201-4.34.915-4.34.517 0 1.408.261 3.488 2.262C25.485 17.937 25.877 19 27.206 19h3.5c.997 0 1.502-.499 1.211-1.484-.665-2.073-5.162-6.336-5.364-6.62-.517-.666-.368-.963 0-1.556.006-.006 4.277-6.015 4.717-8.052z" fill="#CBF9E3"/></svg>